<?xml version="1.0" standalone="no"?><!DOCTYPE svg PUBLIC "-//W3C//DTD SVG 1.1//EN" "http://www.w3.org/Graphics/SVG/1.1/DTD/svg11.dtd"><svg t="1499648546872" class="icon" style="" viewBox="0 0 1024 1024" version="1.1" xmlns="http://www.w3.org/2000/svg" p-id="995" xmlns:xlink="http://www.w3.org/1999/xlink" width="200" height="200"><defs><style type="text/css"></style></defs><path d="M93.76 944.448c-48.106667 0-87.253333-39.125333-87.253333-87.232 0-48.128 39.125333-87.253333 87.253333-87.253333 48.106667 0 87.232 39.125333 87.232 87.253333C180.992 905.344 141.866667 944.448 93.76 944.448zM93.76 814.997333c-23.274667 0-42.218667 18.944-42.218667 42.218667 0 23.274667 18.944 42.218667 42.218667 42.218667 23.274667 0 42.218667-18.944 42.218667-42.218667C135.978667 833.941333 117.034667 814.997333 93.76 814.997333zM1013.333333 885.269333 312.874667 885.269333l0-56.106667L1013.333333 829.162667 1013.333333 885.269333zM93.76 599.488c-48.106667 0-87.253333-39.146667-87.253333-87.253333s39.125333-87.232 87.253333-87.232c48.106667 0 87.232 39.125333 87.232 87.232S141.866667 599.488 93.76 599.488zM93.76 470.016c-23.274667 0-42.218667 18.944-42.218667 42.218667 0 23.296 18.944 42.218667 42.218667 42.218667 23.274667 0 42.218667-18.944 42.218667-42.218667C135.978667 488.96 117.034667 470.016 93.76 470.016zM1013.333333 540.288 312.874667 540.288l0-56.106667L1013.333333 484.181333 1013.333333 540.288zM93.76 233.152c-48.106667 0-87.253333-39.125333-87.253333-87.232 0-48.106667 39.125333-87.253333 87.253333-87.253333 48.106667 0 87.232 39.125333 87.232 87.253333C180.992 194.026667 141.866667 233.152 93.76 233.152zM93.76 103.701333c-23.274667 0-42.218667 18.944-42.218667 42.218667 0 23.274667 18.944 42.218667 42.218667 42.218667 23.274667 0 42.218667-18.944 42.218667-42.218667C135.978667 122.645333 117.034667 103.701333 93.76 103.701333zM1013.333333 173.952 312.874667 173.952l0-56.106667L1013.333333 117.845333 1013.333333 173.952z" p-id="996" fill="#707070"></path></svg>