<?xml version="1.0" standalone="no"?><!DOCTYPE svg PUBLIC "-//W3C//DTD SVG 1.1//EN" "http://www.w3.org/Graphics/SVG/1.1/DTD/svg11.dtd"><svg t="1499648657226" class="icon" style="" viewBox="0 0 1024 1024" version="1.1" xmlns="http://www.w3.org/2000/svg" p-id="3160" xmlns:xlink="http://www.w3.org/1999/xlink" width="200" height="200"><defs><style type="text/css"></style></defs><path d="M718.29504 210.35008 304.41472 210.35008c-56.5248 0-94.84288 53.94432-94.84288 110.65344l0 411.48416c0 56.79104 38.37952 92.672 94.84288 92.672l413.88032 0c56.50432 0 105.02144-35.9424 105.08288-92.672l0-411.4432C823.3984 264.23296 774.79936 210.35008 718.29504 210.35008L718.29504 210.35008zM782.39744 732.52864c0 34.07872-30.16704 54.08768-64.08192 54.08768l-413.9008 0c-33.93536 0-53.82144-20.00896-53.82144-54.08768L250.59328 321.024c0-34.0992 19.92704-69.48864 53.82144-69.48864l413.88032 0c33.93536 0 64.06144 35.40992 64.06144 69.48864l0 411.48416L782.39744 732.50816zM597.25824 353.30048 291.84 353.30048l0 41.22624 305.41824 0L597.25824 353.30048 597.25824 353.30048zM291.84 537.47712l449.31072 0 0-40.98048L291.84 496.49664 291.84 537.47712 291.84 537.47712zM665.35424 415.70304c10.752 0 21.48352-4.46464 29.10208-12.10368s12.06272-18.39104 12.06272-29.22496c0-10.81344-4.44416-21.58592-12.06272-29.22496-7.59808-7.65952-18.30912-12.10368-29.10208-12.10368-10.752 0-21.48352 4.44416-29.10208 12.10368-7.61856 7.63904-12.06272 18.41152-12.06272 29.22496 0 10.79296 4.44416 21.54496 12.06272 29.22496S654.60224 415.70304 665.35424 415.70304L665.35424 415.70304zM665.35424 415.70304" p-id="3161" fill="#707070"></path></svg>